<svg width="1440" height="848" viewBox="0 0 1440 848" fill="none" xmlns="http://www.w3.org/2000/svg">
<g clip-path="url(#clip0_94_60)">
<path d="M0 847.65C18.93 830.308 39.1848 814.47 60.58 800.28C71.75 792.87 116 764.2 182 741.73C253.86 717.29 313.19 713.25 352.34 710.85C381.492 709.136 410.715 709.009 439.88 710.47C500.23 713.02 555.35 721.21 584.63 725.63C607.18 729.03 616.26 730.88 638.82 733.63C638.82 733.63 680.74 738.63 720.3 740.08C808.79 743.27 907.71 725.86 919.24 723.78C1015.05 706.54 1084.77 680.93 1134.49 662.39C1216.42 631.85 1277.69 600.45 1324.34 576.39C1371.87 551.85 1411.1 529.28 1439.97 511.97V24.2C1416.15 51.79 1382.9 88.31 1340.63 128.78C1308.78 159.29 1273.5 193.07 1222.02 230.72C1178.81 262.32 1129.25 298.57 1056.8 326.22C1025.5 338.16 972.32 358.45 909.8 360.7C793.23 364.89 697.8 304.49 526.31 195.86C499.12 178.64 454.52 149.41 388.37 119.31C353.46 103.43 314.1 85.77 258.77 73.08C227.68 65.95 177.07 54.7399 110.77 59.4399C73.0736 62.1118 35.8605 69.496 0 81.4199L0 847.65Z" fill="#288DDD"/>
<path opacity="0.3" d="M1160.71 273.49C1128 294.613 1093.19 312.281 1056.83 326.21C1025.52 338.21 972.35 358.45 909.83 360.7C793.26 364.89 697.83 304.48 526.33 195.86C499.14 178.64 454.55 149.41 388.4 119.31C353.49 103.43 314.12 85.77 258.8 73.08C227.71 65.94 177.09 54.74 110.8 59.44C73.094 62.1069 35.8708 69.4877 0 81.41L0 25.58C41.7726 10.6112 85.5818 2.09353 129.92 0.320025C202.9 -2.50997 258.31 14 289.59 23.56C328.48 35.47 355.5 48.56 387.59 64.24C441.063 90.3537 492.125 121.14 540.18 156.24C565.94 174.9 756.68 314.24 915.34 331.82C1005.94 341.83 1090.76 312.79 1160.71 273.49Z" fill="#288DDD"/>
</g>
<defs>
<clipPath id="clip0_94_60">
<rect width="1440" height="847.65" fill="white"/>
</clipPath>
</defs>
</svg>
