<svg width="178" height="38" viewBox="0 0 178 38" fill="none" xmlns="http://www.w3.org/2000/svg">
<g clip-path="url(#clip0_10_18)">
<path d="M22.6503 30.6859H11.0937C9.58519 30.6561 8.1485 30.0326 7.09217 28.9493C6.03585 27.866 5.44414 26.4094 5.44414 24.8922C5.44414 23.375 6.03585 21.9184 7.09217 20.8351C8.1485 19.7518 9.58519 19.1283 11.0937 19.0985H11.1248L6.69929 14.646C4.35284 15.6613 2.42672 17.4597 1.24616 19.7376C0.0656039 22.0155 -0.297044 24.6333 0.219454 27.149C0.735952 29.6646 2.09995 31.9239 4.08111 33.5454C6.06228 35.1669 8.53922 36.0512 11.0937 36.049H27.9859L22.6503 30.6859Z" fill="#FBFBFB"/>
<path d="M9.74995 7.31404H21.3066C22.0728 7.2989 22.8342 7.43757 23.5464 7.72193C24.2587 8.0063 24.9073 8.43064 25.4545 8.97014C26.0016 9.50964 26.4363 10.1535 26.733 10.8639C27.0297 11.5744 27.1826 12.3372 27.1826 13.1078C27.1826 13.8784 27.0297 14.6412 26.733 15.3517C26.4363 16.0621 26.0016 16.7059 25.4545 17.2454C24.9073 17.7849 24.2587 18.2093 23.5464 18.4936C22.8342 18.778 22.0728 18.9167 21.3066 18.9015H21.2732L25.701 23.354C28.0474 22.3387 29.9735 20.5402 31.1541 18.2623C32.3347 15.9844 32.6973 13.3667 32.1808 10.851C31.6643 8.33541 30.3003 6.07609 28.3191 4.4546C26.338 2.8331 23.861 1.94879 21.3066 1.95099H4.41663L9.74995 7.31404Z" fill="#FBFBFB"/>
<path d="M31.3236 30.4152V38L1.0769 7.58255V0L31.3236 30.4152Z" fill="#FBFBFB"/>
<path d="M38.1721 30.0953V7.55347H47.8842C50.1582 7.55347 52.0731 7.93308 53.6292 8.6923C55.1967 9.45815 56.4539 10.7437 57.1892 12.3326C58.0005 14.0017 58.407 16.2122 58.4085 18.9642C58.4085 22.8424 57.5185 25.666 55.7385 27.435C53.9585 29.204 51.3419 30.0908 47.8887 30.0953H38.1721ZM43.7769 25.7547H47.1144C48.1559 25.7861 49.1927 25.6018 50.1604 25.2133C50.9836 24.8508 51.6103 24.1796 52.0405 23.1996C52.4707 22.2196 52.685 20.8078 52.6835 18.9642C52.6835 17.0982 52.4922 15.6573 52.1095 14.6415C51.7268 13.6258 51.1253 12.9158 50.305 12.5115C49.4788 12.1043 48.4167 11.9 47.1188 11.8985H43.7813L43.7769 25.7547Z" fill="#FBFBFB"/>
<path d="M70.0875 30.4466C67.2113 30.4466 64.9025 29.7291 63.1611 28.2942C61.4196 26.8593 60.5497 24.6964 60.5511 21.8057C60.5511 19.1686 61.2706 17.0684 62.7094 15.5052C64.1482 13.942 66.3109 13.1582 69.1975 13.1537C71.8185 13.1537 73.8485 13.8309 75.2873 15.1852C76.7262 16.5396 77.4456 18.3594 77.4456 20.6445V23.6202H65.7421C65.835 24.1196 66.0466 24.5889 66.3588 24.9882C66.6711 25.3876 67.0748 25.705 67.5354 25.9136C68.4744 26.3447 69.756 26.5602 71.3802 26.5602C72.3081 26.5586 73.2341 26.4771 74.1481 26.3163C74.9513 26.1901 75.7389 25.9786 76.4977 25.6854V29.3614C75.6011 29.768 74.6522 30.0459 73.6786 30.187C72.4903 30.3693 71.2895 30.456 70.0875 30.4466ZM65.7421 20.3648H72.5639V19.631C72.5822 19.2738 72.5268 18.9167 72.4012 18.5821C72.2756 18.2475 72.0825 17.9426 71.8341 17.6867C71.3476 17.2108 70.5236 16.9722 69.3621 16.9707C68.0153 16.9707 67.0756 17.2444 66.5431 17.7918C66.0106 18.3392 65.7436 19.1969 65.7421 20.3648Z" fill="#FBFBFB"/>
<path d="M84.1896 30.0953L77.6814 13.5049H83.5287L87.1488 24.2847L90.8045 13.5049H96.6518L90.1437 30.0953H84.1896Z" fill="#FBFBFB"/>
<path d="M100.167 30.0953V13.505H102.744L102.953 15.6059C103.859 15.0208 104.82 14.5277 105.823 14.1337C106.876 13.7058 107.965 13.3777 109.078 13.1537V15.3911C108.429 15.5298 107.721 15.7222 106.956 15.9683C106.211 16.205 105.479 16.479 104.762 16.7895C104.152 17.0465 103.569 17.3635 103.022 17.7359V30.0908L100.167 30.0953Z" fill="#FBFBFB"/>
<path d="M119.069 30.4465C116.192 30.4465 114.098 29.7052 112.785 28.2226C111.473 26.7399 110.817 24.5995 110.818 21.8012C110.818 19.0254 111.48 16.8901 112.803 15.3956C114.126 13.901 116.215 13.1552 119.069 13.1582C121.924 13.1582 124.013 13.904 125.334 15.3956C126.656 16.8872 127.317 19.0224 127.319 21.8012C127.319 24.5995 126.669 26.7399 125.37 28.2226C124.07 29.7052 121.97 30.4465 119.069 30.4465ZM119.069 27.9854C121.04 27.9854 122.432 27.4894 123.245 26.4975C124.058 25.5056 124.464 23.9394 124.464 21.799C124.464 19.6511 124.053 18.0849 123.229 17.1004C122.406 16.116 121.019 15.6208 119.069 15.6148C117.12 15.6148 115.733 16.11 114.91 17.1004C114.087 18.0909 113.675 19.6571 113.673 21.799C113.673 23.9454 114.079 25.5116 114.892 26.4975C115.705 27.4835 117.097 27.9832 119.069 27.9966V27.9854Z" fill="#FBFBFB"/>
<path d="M137.309 30.4465C135.336 30.4465 133.845 29.8976 132.835 28.7998C131.825 27.702 131.32 26.1037 131.322 24.0051V13.5049H134.167V24.1102C134.167 25.4885 134.509 26.5035 135.193 27.1553C135.877 27.8072 136.944 28.1338 138.395 28.1353C139.386 28.1425 140.369 27.9524 141.287 27.5759C142.159 27.2248 142.952 26.7014 143.619 26.0366V13.5072H146.474V30.0975H143.889L143.713 28.2091C142.866 28.8953 141.914 29.4386 140.894 29.8178C139.748 30.2477 138.532 30.4608 137.309 30.4465Z" fill="#FBFBFB"/>
<path d="M157.359 30.4465C155.727 30.4465 154.502 30.0088 153.685 29.1332C152.868 28.2576 152.456 27.0382 152.45 25.475V15.7804H149.945V13.505H152.45V9.40827L155.305 8.53345V13.505H159.864L159.69 15.7804H155.305V25.3363C155.305 26.3387 155.527 27.0561 155.972 27.4887C156.417 27.9213 157.201 28.1368 158.322 28.1353C158.998 28.1228 159.667 28.0051 160.307 27.7863V29.9633C159.361 30.3015 158.362 30.4652 157.359 30.4465Z" fill="#FBFBFB"/>
<path d="M171.734 30.4466C168.787 30.4466 166.582 29.7343 165.119 28.3098C163.657 26.8854 162.926 24.692 162.928 21.7296C162.928 19.0701 163.56 16.9759 164.826 15.447C166.091 13.9181 168.094 13.1537 170.833 13.1537C172.465 13.1537 173.805 13.452 174.854 14.0486C175.872 14.6052 176.697 15.4596 177.221 16.4986C177.754 17.5924 178.021 18.7979 178 20.0158V23.1303H165.783C165.873 24.3892 166.145 25.3811 166.599 26.106C167.08 26.8537 167.807 27.408 168.653 27.6722C169.569 27.9869 170.782 28.1443 172.291 28.1443C173.89 28.1637 175.478 27.8665 176.963 27.2694V29.5068C176.184 29.828 175.372 30.0628 174.542 30.2072C173.615 30.3718 172.676 30.452 171.734 30.4466ZM165.783 21.0651H175.459V19.7003C175.459 18.3459 175.105 17.3018 174.398 16.568C173.69 15.8341 172.524 15.4664 170.898 15.4649C168.926 15.4649 167.581 15.9318 166.862 16.8655C166.142 17.7993 165.783 19.1991 165.783 21.0651Z" fill="#FBFBFB"/>
</g>
<defs>
<clipPath id="clip0_10_18">
<rect width="178" height="38" fill="white"/>
</clipPath>
</defs>
</svg>
