<svg width="1440" height="901" viewBox="0 0 1440 901" fill="none" xmlns="http://www.w3.org/2000/svg">
<path d="M1439.93 205.65C1439.93 137.097 1439.93 68.5467 1439.93 0C1203.28 50.4667 961.974 75.9099 720 75.91C478.046 75.9071 236.763 50.4639 0.13 0C0.13 68.5467 0.13 137.097 0.13 205.65C0.0433333 421.217 0 636.76 0 852.28C61.7083 869.182 124.53 881.716 188 889.79C220.18 893.88 355.44 909.9 530.13 890.93C612.86 881.93 686.64 867.05 720 860.24C800.82 843.74 808.07 837.77 874.53 826.14C980.15 807.66 1057.72 806 1078 805.68C1126.58 805.132 1175.16 807.41 1223.48 812.5C1296.68 820.117 1369.11 833.889 1440 853.67C1440 637.663 1439.98 421.657 1439.93 205.65Z" fill="#288DDD"/>
</svg>
