<svg width="178" height="63" viewBox="0 0 178 63" fill="none" xmlns="http://www.w3.org/2000/svg">
<g clip-path="url(#clip0_83_454)">
<path d="M21 0.77002H30.73V45.87C26.5712 46.7313 22.337 47.1768 18.09 47.2C6.19 47.15 0 41.78 0 31.47C0 21.55 6.57 15.1 16.75 15.1C18.18 15.0747 19.6068 15.2463 20.99 15.61L21 0.77002ZM21 23.45C19.941 23.0913 18.8279 22.9187 17.71 22.94C12.78 22.94 9.94 25.94 9.94 31.29C9.94 36.64 12.65 39.29 17.65 39.29C18.7714 39.2917 19.8913 39.2081 21 39.04V23.45ZM46.22 15.8V38.37C46.22 46.14 45.65 49.87 43.96 53.1C42.27 56.33 40.29 58.1 35.96 60.3L26.96 56C31.26 54 33.34 52.21 34.67 49.49C36 46.77 36.5 43.49 36.5 35.02V15.87L46.22 15.8ZM36.48 0.870018H46.21V10.87H36.48V0.870018ZM52.09 18.01C56.1153 16.0699 60.5316 15.0779 65 15.11C70 15.11 73.29 16.43 74.74 19.03C75.55 20.48 75.81 22.38 75.81 26.42V46.22C71.2047 46.8773 66.5616 47.2347 61.91 47.29C53.75 47.29 50.09 44.45 50.09 38.13C50.09 31.3 54.95 28.13 66.9 27.13V24.98C66.9 23.21 66.01 22.56 63.55 22.56C59.5542 22.6489 55.6353 23.6766 52.11 25.56V18.01H52.09ZM67.32 33.5C60.87 34.13 58.77 35.14 58.77 37.67C58.77 39.57 59.97 40.45 62.64 40.45C64.21 40.4425 65.7762 40.2953 67.32 40.01V33.5ZM80.55 17.32C85.5291 15.9065 90.6744 15.1633 95.85 15.11C100.85 15.11 104.45 16.25 106.59 18.46C108.73 20.67 109.25 22.82 109.25 27.69V46.78H99.51V28.06C99.51 24.33 98.25 22.94 94.77 22.94C93.246 22.9384 91.7311 23.1746 90.28 23.64V46.77H80.53L80.55 17.32ZM113 52.08C116.211 53.7876 119.793 54.6772 123.43 54.67C129.81 54.67 132.53 52.08 132.53 45.89V45.7C130.565 46.6563 128.394 47.1131 126.21 47.03C117.66 47.03 112.21 41.4 112.21 32.49C112.21 21.42 120.21 15.17 134.46 15.17C138.73 15.1892 142.987 15.6551 147.16 16.56L143.83 23.56C141.24 23.06 143.62 23.49 141.66 23.3V24.3L141.79 28.41L141.85 33.72C141.92 35.05 141.92 36.38 141.98 37.72V40.38C141.98 48.72 141.29 52.64 139.2 55.87C136.2 60.61 130.92 62.96 123.46 62.96C119.885 63.0126 116.333 62.3742 113 61.08V52.08ZM132.36 23.01H131.36C129.394 22.9402 127.447 23.4217 125.74 24.4C123.4 25.73 122.2 28.13 122.2 31.54C122.2 36.41 124.62 39.19 128.9 39.19C130.148 39.1676 131.386 38.9552 132.57 38.56V35.2C132.57 34.07 132.5 32.78 132.5 31.47L132.44 26.99L132.37 23.76V23.01H132.36ZM162.3 15.01C172.04 15.01 177.98 21.14 177.98 31.07C177.98 41.23 171.79 47.63 161.92 47.63C152.05 47.63 146.18 41.5 146.18 31.63C146.18 21.38 152.38 15 162.3 15V15.01ZM162.11 39.79C165.84 39.79 168.11 36.69 168.11 31.32C168.11 25.95 165.93 22.87 162.2 22.87C158.47 22.87 156.13 25.97 156.13 31.34C156.13 36.71 158.34 39.76 162.13 39.76L162.11 39.79Z" fill="#212121"/>
</g>
<defs>
<clipPath id="clip0_83_454">
<rect width="178" height="62.21" fill="white" transform="translate(0 0.77002)"/>
</clipPath>
</defs>
</svg>
