<svg width="178" height="86" viewBox="0 0 178 86" fill="none" xmlns="http://www.w3.org/2000/svg">
<g clip-path="url(#clip0_83_468)">
<path d="M74.82 42.56C74.8188 40.1259 74.0102 37.7608 72.5209 35.8354C71.0316 33.91 68.9457 32.533 66.59 31.92L77.15 0.77002H24.79L35.38 32.02C33.3989 32.6023 31.6218 33.7305 30.2518 35.2754C28.8818 36.8203 27.9744 38.7197 27.6332 40.7562C27.2921 42.7927 27.531 44.884 28.3227 46.7911C29.1144 48.6982 30.4269 50.3439 32.11 51.54C30.9766 53.1285 29.6905 54.6022 28.27 55.94C25.6606 58.4261 22.6077 60.4002 19.27 61.76C17.8577 60.8756 16.7852 59.5403 16.2262 57.9705C15.6672 56.4006 15.6544 54.688 16.19 53.11C18.4909 52.4126 20.5 50.9805 21.9098 49.0329C23.3195 47.0853 24.0524 44.7295 23.9962 42.3258C23.94 39.9222 23.0978 37.6031 21.5985 35.7236C20.0992 33.844 18.0254 32.5074 15.6944 31.9183C13.3634 31.3292 10.9036 31.52 8.69136 32.4616C6.4791 33.4031 4.63626 35.0436 3.44481 37.1319C2.25336 39.2202 1.77893 41.6414 2.09411 44.025C2.40929 46.4085 3.49671 48.6231 5.19 50.33L4.67 51.39C3 54.78 1.12 58.61 0.410003 62.91C-1.02 71.49 1.32 78.42 6.94 82.32C9.98851 84.4699 13.6297 85.6196 17.36 85.61C23.82 85.61 30.36 82.37 36.72 79.23C41.24 76.99 45.91 74.66 50.52 73.53C52.2 73.11 53.99 72.86 55.86 72.59C59.64 72.03 63.55 71.49 67.06 69.45C69.0647 68.2997 70.7941 66.7257 72.1275 64.8379C73.4609 62.9501 74.3661 60.7939 74.78 58.52C75.3683 55.0549 74.8138 51.4924 73.2 48.37C74.2886 46.6248 74.8607 44.6069 74.85 42.55L74.82 42.56ZM70.02 42.56C70.0128 43.5027 69.7901 44.4312 69.3688 45.2746C68.9476 46.1179 68.339 46.8537 67.5896 47.4256C66.8402 47.9976 65.97 48.3905 65.0454 48.5743C64.1208 48.7582 63.1664 48.7281 62.2552 48.4863C61.3441 48.2445 60.5003 47.7975 59.7885 47.1795C59.0766 46.5614 58.5156 45.7887 58.1484 44.9205C57.7812 44.0523 57.6174 43.1115 57.6697 42.1703C57.722 41.229 57.9889 40.3122 58.45 39.49C58.6506 39.1373 58.8815 38.8027 59.14 38.49C59.3998 38.1959 59.6879 37.9279 60 37.69C60.2 37.54 60.42 37.39 60.64 37.25L60.96 37.05H61.04C61.13 37.05 61.26 36.95 61.38 36.9C61.5 36.85 61.63 36.8 61.72 36.75C61.81 36.7 61.72 36.75 61.8 36.75C61.88 36.75 61.99 36.68 62.09 36.66H62.19L62.53 36.59L62.9 36.51C62.9328 36.5185 62.9672 36.5185 63 36.51C63.09 36.51 63.19 36.51 63.29 36.51H63.41H63.79H64.1C64.1897 36.4997 64.2803 36.4997 64.37 36.51C64.5683 36.5328 64.7653 36.5662 64.96 36.61C66.3493 36.8854 67.6041 37.6237 68.5196 38.7044C69.435 39.7852 69.9569 41.1444 70 42.56H70.02ZM31.64 5.68002H70.29L61.42 31.85C61.0472 31.9301 60.6798 32.0336 60.32 32.16L51 13.19L41.62 32.05C41.2414 31.9284 40.8534 31.8381 40.46 31.78L31.64 5.68002ZM49.21 40.42C48.7596 38.1501 47.5965 36.0831 45.89 34.52L51 24.25L56.13 34.75C54.5525 36.2916 53.4639 38.2636 53 40.42H49.21ZM36.9 36.54L37.25 36.46H37.32H37.62H37.71C37.81 36.46 37.89 36.46 37.99 36.46H38.94C39.04 36.46 39.12 36.46 39.19 36.46C39.2294 36.4503 39.2706 36.4503 39.31 36.46C39.3999 36.4553 39.4901 36.4553 39.58 36.46C39.6129 36.4523 39.6471 36.4523 39.68 36.46L40.03 36.54C40.1377 36.5581 40.2421 36.5918 40.34 36.64C40.34 36.64 40.34 36.64 40.44 36.64C40.5271 36.6629 40.6111 36.6965 40.69 36.74H40.76L41.06 36.87C41.1745 36.9106 41.2823 36.9679 41.38 37.04C41.4909 37.0883 41.5979 37.1451 41.7 37.21C41.7 37.21 41.7 37.21 41.75 37.21C41.8 37.21 41.92 37.34 42.02 37.39C42.31 37.62 42.59 37.85 42.86 38.1C43.1178 38.3705 43.3488 38.6652 43.55 38.98C44.2724 40.0778 44.6273 41.3768 44.5634 42.6894C44.4995 44.0021 44.0202 45.2604 43.1946 46.2829C42.3691 47.3054 41.24 48.0391 39.9703 48.3782C38.7006 48.7172 37.356 48.6441 36.1306 48.1693C34.9052 47.6944 33.8624 46.8425 33.1526 45.7365C32.4429 44.6304 32.103 43.3275 32.1819 42.0157C32.2608 40.7039 32.7546 39.4511 33.5918 38.4381C34.4291 37.4252 35.5665 36.7045 36.84 36.38L36.9 36.54ZM12.73 36.37C13.9543 36.37 15.151 36.7331 16.169 37.4132C17.1869 38.0934 17.9803 39.0601 18.4488 40.1912C18.9173 41.3223 19.0399 42.5669 18.8011 43.7676C18.5622 44.9684 17.9727 46.0713 17.107 46.937C16.2413 47.8027 15.1384 48.3922 13.9376 48.6311C12.7369 48.8699 11.4923 48.7473 10.3612 48.2788C9.23012 47.8103 8.26337 47.0169 7.58321 45.999C6.90304 44.9811 6.54 43.7843 6.54 42.56C6.54528 40.92 7.19913 39.3486 8.35884 38.1889C9.51855 37.0291 11.0899 36.3753 12.73 36.37ZM69.87 57.67C69.5861 59.2372 68.9617 60.7229 68.0407 62.0223C67.1197 63.3217 65.9247 64.4031 64.54 65.19C61.86 66.74 58.54 67.19 55.1 67.73C53.21 68 51.22 68.29 49.32 68.73C44.21 69.98 39.32 72.46 34.53 74.8C28.44 77.8 22.69 80.67 17.37 80.67C14.6397 80.6884 11.9744 79.8373 9.76 78.24C4.32 74.48 4.59 67.5 5.25 63.66C5.84 60.08 7.49 56.66 9.06 53.49C9.16 53.3 9.23 53.12 9.33 52.93C9.88389 53.1222 10.4524 53.2694 11.03 53.37C10.5976 56.0259 11.036 58.7505 12.2796 61.1368C13.5232 63.523 15.5053 65.443 17.93 66.61L18.86 67.1L19.86 66.73C24.2598 65.1437 28.2768 62.6497 31.65 59.41C33.5913 57.5996 35.307 55.5615 36.76 53.34C37.3153 53.4297 37.8776 53.4698 38.44 53.46C40.8742 53.4588 43.2392 52.6502 45.1646 51.1609C47.09 49.6716 48.467 47.5857 49.08 45.23H53.21C53.8225 47.5841 55.1981 49.6687 57.1215 51.1579C59.0448 52.647 61.4075 53.4566 63.84 53.46C65.7971 53.4684 67.7194 52.9429 69.4 51.94C70.0505 53.7594 70.2193 55.7161 69.89 57.62L69.87 57.67ZM109.25 54.99C108.904 56.1001 108.325 57.1231 107.55 57.99C106.674 58.9396 105.588 59.6722 104.38 60.13C102.817 60.7111 101.157 60.9861 99.49 60.94C96.25 60.94 93.74 60.08 92 58.38C90.26 56.68 89.39 54.16 89.39 50.87V48.79H94V50.29C93.9901 51.2256 94.0704 52.1599 94.24 53.08C94.3724 53.8616 94.6652 54.6072 95.1 55.27C95.525 55.8983 96.1125 56.3995 96.8 56.72C97.6849 57.0932 98.6401 57.2706 99.6 57.24C101.71 57.24 103.14 56.67 103.97 55.56C104.834 54.1975 105.256 52.6016 105.18 50.99V25.41H109.8V51.55C109.78 52.7177 109.591 53.8763 109.24 54.99H109.25ZM134.54 58.6C132.467 60.0848 129.958 60.8377 127.41 60.74C125.616 60.7797 123.833 60.4389 122.18 59.74C120.739 59.1316 119.459 58.1971 118.44 57.01C117.399 55.785 116.629 54.3537 116.18 52.81C115.66 51.0862 115.374 49.3001 115.33 47.5C115.309 45.7083 115.606 43.9271 116.21 42.24C116.761 40.7139 117.596 39.3058 118.67 38.09C119.711 36.9189 120.994 35.9875 122.43 35.36C123.923 34.7011 125.538 34.3605 127.17 34.36C129.128 34.2892 131.066 34.7746 132.76 35.76C134.204 36.6458 135.42 37.8584 136.31 39.3C137.196 40.7351 137.819 42.3164 138.15 43.97C138.479 45.5512 138.62 47.1657 138.57 48.78H119.73C119.703 49.8423 119.828 50.9029 120.1 51.93C120.372 52.8974 120.861 53.79 121.53 54.54C122.211 55.3231 123.059 55.9447 124.01 56.36C125.127 56.8415 126.334 57.0768 127.55 57.05C129.087 57.1084 130.603 56.6778 131.88 55.82C133.07 54.9084 133.862 53.5719 134.09 52.09H138.19C137.831 54.6205 136.522 56.9194 134.53 58.52L134.54 58.6ZM133.54 42.43C133.169 41.595 132.647 40.8356 132 40.19C131.356 39.5517 130.595 39.0426 129.76 38.69C127.916 37.9433 125.854 37.9433 124.01 38.69C123.192 39.042 122.451 39.5517 121.83 40.19C121.205 40.8506 120.701 41.6155 120.34 42.45C119.963 43.3208 119.746 44.2524 119.7 45.2H134.17C134.105 44.2433 133.882 43.3039 133.51 42.42L133.54 42.43ZM146 54.56C146.381 55.1764 146.906 55.6911 147.53 56.06C148.193 56.4394 148.912 56.7127 149.66 56.87C150.469 57.0359 151.294 57.1164 152.12 57.11C152.789 57.1064 153.457 57.0597 154.12 56.97C154.809 56.8859 155.482 56.704 156.12 56.43C156.71 56.1763 157.226 55.7772 157.62 55.27C158.019 54.7106 158.226 54.037 158.21 53.35C158.235 52.8729 158.134 52.3976 157.918 51.9714C157.703 51.5451 157.379 51.1827 156.98 50.92C156.056 50.3174 155.044 49.8619 153.98 49.57L149.98 48.64C148.609 48.3882 147.268 47.9926 145.98 47.46C144.811 47.0024 143.766 46.2762 142.93 45.34C142.059 44.2718 141.62 42.9159 141.7 41.54C141.667 40.3901 141.966 39.255 142.56 38.27C143.109 37.3767 143.854 36.6207 144.74 36.06C145.666 35.477 146.678 35.045 147.74 34.78C148.833 34.51 149.954 34.369 151.08 34.36C152.423 34.3444 153.763 34.4684 155.08 34.73C156.219 34.9482 157.305 35.3827 158.28 36.01C159.216 36.614 159.977 37.4516 160.49 38.44C161.096 39.6296 161.437 40.9361 161.49 42.27H157.34C157.309 41.5583 157.088 40.8678 156.7 40.27C156.34 39.7413 155.869 39.2977 155.32 38.97C154.756 38.6407 154.146 38.398 153.51 38.25C152.852 38.1096 152.182 38.0359 151.51 38.03C150.884 38.0303 150.258 38.0804 149.64 38.18C149.048 38.2638 148.471 38.4357 147.93 38.69C147.432 38.9203 146.994 39.2625 146.65 39.69C146.312 40.142 146.139 40.6961 146.16 41.26C146.149 41.5927 146.212 41.9237 146.343 42.2296C146.474 42.5355 146.671 42.8088 146.92 43.03C147.472 43.5261 148.109 43.919 148.8 44.19C149.648 44.5206 150.521 44.7848 151.41 44.98L154.33 45.64C155.33 45.87 156.33 46.15 157.33 46.48C158.263 46.7725 159.144 47.2113 159.94 47.78C160.691 48.3054 161.319 48.9878 161.78 49.78C162.274 50.7011 162.519 51.7352 162.49 52.78C162.543 54.1146 162.214 55.4367 161.54 56.59C160.912 57.5838 160.059 58.4161 159.05 59.02C157.983 59.6565 156.811 60.1 155.59 60.33C154.327 60.568 153.045 60.6918 151.76 60.7C150.414 60.7 149.072 60.5491 147.76 60.25C146.551 59.9958 145.406 59.5028 144.39 58.8C143.429 58.1257 142.644 57.2306 142.1 56.19C141.462 54.952 141.119 53.5828 141.1 52.19H145.25C145.32 53.0153 145.572 53.8147 145.99 54.53L146 54.56ZM178 35.02V38.68H173V54.33C172.995 54.7266 173.035 55.1225 173.12 55.51C173.193 55.7871 173.359 56.0307 173.59 56.2C173.874 56.3856 174.201 56.4957 174.54 56.52C174.94 56.52 175.48 56.59 176.12 56.59H178V60.25H174.83C173.905 60.2642 172.981 60.1906 172.07 60.03C171.398 59.919 170.766 59.6404 170.23 59.22C169.756 58.7687 169.411 58.1992 169.23 57.57C168.97 56.6499 168.852 55.6957 168.88 54.74V38.74H164.58V35.04H168.88V27.48H173V35.02H178Z" fill="#5E5E5E"/>
</g>
<defs>
<clipPath id="clip0_83_468">
<rect width="178" height="84.85" fill="white" transform="translate(0 0.77002)"/>
</clipPath>
</defs>
</svg>
