<svg width="178" height="28" viewBox="0 0 178 28" fill="none" xmlns="http://www.w3.org/2000/svg">
<g clip-path="url(#clip0_83_442)">
<path d="M45 14.63H38.16V7.70999H45.41C48.0767 7.70999 49.41 8.87998 49.41 11.22C49.41 13.5 47.95 14.63 45.05 14.63M50.05 7.62999C48.9253 6.71603 47.496 6.26223 46.05 6.35998L36.19 6.41999V22.98H38.19V15.98H45.52C47.0723 16.064 48.6068 15.616 49.87 14.71C50.3857 14.2798 50.7928 13.7343 51.0586 13.1176C51.3244 12.5009 51.4414 11.8303 51.4 11.16C51.4394 10.505 51.3344 9.84929 51.0925 9.23931C50.8506 8.62933 50.4776 8.07994 50 7.62999H50.05ZM62.9 19.5C62.708 20.0404 62.385 20.5249 61.96 20.91C60.8243 21.8638 59.3581 22.331 57.88 22.21C57.1812 22.2681 56.4779 22.1857 55.8115 21.9676C55.1451 21.7495 54.5292 21.4 54 20.94C53.5546 20.5007 53.2062 19.973 52.9771 19.3908C52.748 18.8087 52.6434 18.185 52.67 17.56C52.6554 16.8769 52.7743 16.1975 53.02 15.56C53.2365 15.0086 53.579 14.5155 54.02 14.12C55.0682 13.2392 56.4132 12.7921 57.78 12.87C61.3267 12.87 63.1 14.4233 63.1 17.53C63.1104 18.1882 63.0124 18.8436 62.81 19.47M63.17 13.36C61.6473 12.1535 59.7278 11.5613 57.79 11.7C55.9045 11.5788 54.044 12.1835 52.59 13.39C51.5094 14.4992 50.9047 15.9865 50.9047 17.535C50.9047 19.0835 51.5094 20.5708 52.59 21.68C53.2228 22.2507 53.9741 22.6742 54.79 22.92C55.7466 23.1873 56.7368 23.3153 57.73 23.3C59.6709 23.4397 61.5946 22.8554 63.13 21.66C64.2026 20.5426 64.8015 19.0538 64.8015 17.505C64.8015 15.9562 64.2026 14.4673 63.13 13.35L63.17 13.36ZM78.17 19.95C78.17 22.1767 76.17 23.29 72.17 23.29C71.1386 23.3033 70.108 23.2263 69.09 23.06C68.3779 22.9422 67.6973 22.6802 67.09 22.29C66.6734 22.0214 66.3298 21.6538 66.09 21.22C65.829 20.7023 65.6727 20.1382 65.63 19.56H67.49C67.4662 19.9435 67.5466 20.3263 67.7226 20.6678C67.8987 21.0093 68.1638 21.2969 68.49 21.5C69.6289 22.1014 70.917 22.3618 72.2 22.25C74.9867 22.25 76.3833 21.55 76.39 20.15C76.3844 19.7535 76.2436 19.3708 75.9908 19.0653C75.738 18.7597 75.3885 18.5497 75 18.47C74.81 18.41 73.69 18.25 71.62 18C70.3154 17.8853 69.0236 17.6544 67.76 17.31C67.2621 17.1542 66.8296 16.8384 66.5295 16.4117C66.2294 15.985 66.0784 15.4712 66.1 14.95C66.0815 14.4342 66.2134 13.9241 66.4798 13.482C66.7461 13.0398 67.1354 12.6847 67.6 12.46C68.1807 12.2039 68.7926 12.0257 69.42 11.93C70.2737 11.7998 71.1365 11.7396 72 11.75C75.84 11.75 77.76 12.9533 77.76 15.36H76C76 13.67 74.65 12.81 71.94 12.81C70.8907 12.753 69.842 12.9307 68.87 13.33C68.5647 13.4635 68.3063 13.6853 68.1281 13.9669C67.9499 14.2485 67.86 14.5769 67.87 14.91C67.87 15.58 68.33 16.06 69.24 16.35C70.4525 16.6159 71.6822 16.7963 72.92 16.89C74.1247 16.939 75.3165 17.1578 76.46 17.54C76.989 17.6854 77.4552 18.0015 77.7862 18.4391C78.1171 18.8767 78.2942 19.4114 78.29 19.96L78.17 19.95ZM85.47 22.95L84.71 23.05H84.24C83.3375 23.1214 82.4331 22.9378 81.63 22.52C81.3462 22.313 81.1219 22.0348 80.9797 21.7136C80.8375 21.3923 80.7824 21.0393 80.82 20.69V13.21H78.62V12.1H80.81V8.52999H82.5V12.1H85.5V13.23H82.5V20.58C82.4751 20.79 82.5022 21.0029 82.5789 21.1999C82.6557 21.397 82.7797 21.5721 82.94 21.71C83.421 21.9567 83.9613 22.0641 84.5 22.02C84.6162 22.0346 84.7338 22.0346 84.85 22.02C85.0489 21.9873 85.2458 21.9439 85.44 21.89V23.01L85.47 22.95ZM97.19 20.44C96.7196 20.8221 96.1844 21.1168 95.61 21.31C94.9632 21.5144 94.2883 21.6156 93.61 21.61C90.07 21.61 88.3 20.14 88.3 17.22C88.2713 16.6186 88.3786 16.0186 88.6141 15.4645C88.8496 14.9104 89.2071 14.4166 89.66 14.02C90.7558 13.1856 92.1154 12.7738 93.49 12.86C94.8492 12.7612 96.1955 13.1791 97.26 14.03C97.6908 14.4257 98.0296 14.911 98.2525 15.4518C98.4753 15.9926 98.5769 16.5757 98.55 17.16C98.5865 17.7709 98.488 18.3824 98.2616 18.9509C98.0352 19.5195 97.6864 20.0313 97.24 20.45M100.24 12.06H98.54V13.93C98.0533 13.3969 97.5139 12.9144 96.93 12.49C95.7884 11.9249 94.5227 11.6566 93.25 11.71C91.4561 11.5971 89.6815 12.133 88.25 13.22C87.693 13.7206 87.2555 14.3399 86.9699 15.0323C86.6843 15.7246 86.5579 16.4722 86.6 17.22C86.5865 18.0101 86.7292 18.7952 87.02 19.53C87.2847 20.1947 87.7027 20.7875 88.24 21.26C89.6576 22.3171 91.4054 22.8347 93.17 22.72C95.72 22.72 97.54 22.02 98.6 20.63V22.56C98.6329 23.0931 98.5458 23.6268 98.345 24.1218C98.1443 24.6168 97.835 25.0604 97.44 25.42C96.3208 26.1937 94.9646 26.5478 93.61 26.42C92.3763 26.5161 91.1396 26.2777 90.03 25.73C89.4386 25.2825 89.0442 24.6227 88.93 23.89H87.14C87.1905 24.4166 87.3543 24.926 87.6201 25.3834C87.8859 25.8408 88.2475 26.2354 88.68 26.54C90.2059 27.2892 91.9054 27.6139 93.6 27.48C98.0333 27.48 100.247 25.8333 100.24 22.54V12.16V12.06ZM109.4 13.16C108.931 13.0832 108.456 13.0431 107.98 13.04C105.2 13.04 103.8 14.57 103.8 17.62V22.93H102.13V12.07H103.82V14.06H103.91C104.158 13.351 104.633 12.7433 105.26 12.33C106.196 11.8906 107.227 11.6913 108.26 11.75H109.39V13.21L109.4 13.16ZM110.98 16.81C111.117 15.7194 111.625 14.7094 112.42 13.95C112.907 13.5495 113.468 13.2472 114.07 13.06C114.745 12.8602 115.446 12.7624 116.15 12.77C117.491 12.7121 118.806 13.154 119.84 14.01C120.274 14.3392 120.627 14.7619 120.875 15.2466C121.122 15.7314 121.257 16.2658 121.27 16.81H111M121.46 13.46C120.831 12.8597 120.071 12.4145 119.24 12.16C118.243 11.8541 117.203 11.709 116.16 11.73C114.329 11.6149 112.517 12.1574 111.05 13.26C110.449 13.7702 109.972 14.4112 109.657 15.134C109.341 15.8568 109.195 16.6421 109.23 17.43C109.195 18.2127 109.334 18.9934 109.637 19.716C109.939 20.4387 110.398 21.0855 110.98 21.61C112.472 22.834 114.374 23.4453 116.3 23.32C117.153 23.3235 118.003 23.2193 118.83 23.01C119.539 22.8231 120.214 22.5262 120.83 22.13C121.781 21.4886 122.469 20.5268 122.77 19.42H121C120.38 21.28 118.81 22.21 116.31 22.21C114.826 22.3079 113.363 21.8155 112.24 20.84C111.837 20.4535 111.519 19.9869 111.307 19.4702C111.096 18.9535 110.994 18.3982 111.01 17.84H123.09C123.138 17.0451 123.019 16.2489 122.74 15.503C122.461 14.7572 122.028 14.0782 121.47 13.51L121.46 13.46Z" fill="#202020"/>
<path d="M141 18.54C141 21.76 138.4 23.3734 133.2 23.38C130.08 23.38 127.803 22.8234 126.37 21.71C125.764 21.2045 125.288 20.5612 124.982 19.834C124.676 19.1067 124.548 18.3167 124.61 17.53H126.7C126.7 20.53 128.87 22.05 133.2 22.05C134.756 22.1647 136.314 21.8463 137.7 21.13C138.098 20.8389 138.415 20.451 138.622 20.003C138.828 19.5551 138.917 19.0619 138.88 18.57C138.904 18.0492 138.762 17.534 138.475 17.0991C138.187 16.6641 137.769 16.3318 137.28 16.15C135.832 15.7126 134.35 15.3982 132.85 15.21C130.883 15.0097 128.95 14.5559 127.1 13.86C126.485 13.5466 125.977 13.0585 125.639 12.4572C125.301 11.8558 125.148 11.168 125.2 10.48C125.158 9.83637 125.286 9.19295 125.57 8.61393C125.854 8.03491 126.285 7.54051 126.82 7.18003C127.98 6.38003 129.98 5.99003 132.82 5.99003C137.92 5.99003 140.47 7.68337 140.47 11.07H138.3C138.3 8.53004 136.4 7.26003 132.62 7.26003C131.188 7.16631 129.754 7.43095 128.45 8.03003C128.049 8.28472 127.722 8.64074 127.503 9.06213C127.283 9.48353 127.179 9.95538 127.2 10.43C127.181 10.9387 127.326 11.44 127.615 11.8596C127.903 12.2793 128.318 12.595 128.8 12.76C130.43 13.2744 132.104 13.6393 133.8 13.85C135.62 14.0255 137.402 14.4844 139.08 15.21C139.688 15.5162 140.19 15.9965 140.523 16.5897C140.856 17.1829 141.005 17.8619 140.95 18.54H141ZM158 20.16C157.209 20.7921 156.307 21.2704 155.34 21.57C154.268 21.8997 153.151 22.0583 152.03 22.04C149.835 22.1438 147.68 21.4314 145.98 20.04C145.255 19.3371 144.678 18.4955 144.284 17.5653C143.89 16.6351 143.687 15.6352 143.687 14.625C143.687 13.6148 143.89 12.615 144.284 11.6848C144.678 10.7546 145.255 9.91299 145.98 9.21004C147.688 7.82556 149.844 7.11414 152.04 7.21004C154.223 7.07908 156.372 7.79551 158.04 9.21004C158.785 9.84192 159.371 10.6401 159.75 11.54C160.128 12.4945 160.315 13.5137 160.3 14.54C160.37 15.5901 160.199 16.6422 159.8 17.6162C159.402 18.5902 158.786 19.4603 158 20.16ZM159.12 21.26C160.158 20.5546 160.992 19.5891 161.54 18.46C162.08 17.271 162.347 15.9758 162.32 14.67C162.366 13.5145 162.161 12.3628 161.719 11.2942C161.277 10.2256 160.609 9.26547 159.76 8.48003C158.813 7.60706 157.682 6.95777 156.45 6.58003C155.014 6.1475 153.52 5.9384 152.02 5.96004C149.291 5.80046 146.596 6.63137 144.43 8.30003C143.557 9.10801 142.86 10.0879 142.383 11.1781C141.906 12.2682 141.66 13.4452 141.66 14.635C141.66 15.8249 141.906 17.0018 142.383 18.092C142.86 19.1822 143.557 20.1621 144.43 20.97C146.59 22.6697 149.296 23.523 152.04 23.37C153.142 23.384 154.243 23.3003 155.33 23.12C156.159 22.9866 156.963 22.7234 157.71 22.34L160.81 24.48L162.1 23.29L159.1 21.29L159.12 21.26ZM178 22.97H163.67V6.39004H165.67V21.61H178V23V22.97Z" fill="#6E6E6E"/>
<path d="M22.59 20.16C22.79 18.76 22.73 18.55 23.96 18.78H24.28C25.2708 18.8185 26.2603 18.6762 27.2 18.36C28.77 17.75 29.7 16.71 28.15 16.98C24.62 17.6 24.38 16.59 24.38 16.59C28.11 11.89 29.67 5.92997 28.32 4.46997C24.64 0.469972 18.32 2.37997 18.18 2.46997C17.4029 2.34223 16.6174 2.27204 15.83 2.25997C14.5115 2.21319 13.2092 2.56142 12.09 3.25997C12.09 3.25997 0.71 -0.740025 1.24 8.15997C1.35 10.07 4.45 22.56 8.16 18.79C9.51 17.41 10.82 16.24 10.82 16.24C11.5028 16.6184 12.2815 16.7887 13.06 16.73H13.12C13.0909 16.9088 13.0909 17.0912 13.12 17.27C12.12 18.17 12.45 18.33 10.54 18.66C8.63 18.99 9.74 19.6 10.48 19.76C11.2508 19.9793 12.0671 19.9825 12.8396 19.769C13.6121 19.5556 14.3111 19.1339 14.86 18.55L14.8 18.74C15.18 19 15.15 20.57 15.2 21.74C15.1966 22.6827 15.3382 23.6203 15.62 24.52C15.89 25.14 16.2 26.73 18.71 26.28C20.81 25.9 22.41 25.35 22.55 20.28" fill="#202020"/>
<path d="M22.59 20.16C22.79 18.76 22.73 18.55 23.96 18.78H24.28C25.2708 18.8185 26.2603 18.6762 27.2 18.36C28.77 17.75 29.7 16.71 28.15 16.98C24.62 17.6 24.38 16.59 24.38 16.59C28.11 11.89 29.67 5.92997 28.32 4.46997C24.64 0.469972 18.32 2.37997 18.18 2.46997C17.4029 2.34223 16.6174 2.27204 15.83 2.25997C14.5115 2.21319 13.2092 2.56142 12.09 3.25997C12.09 3.25997 0.71 -0.740025 1.24 8.15997C1.35 10.07 4.45 22.56 8.16 18.79C9.51 17.41 10.82 16.24 10.82 16.24C11.5028 16.6184 12.2815 16.7887 13.06 16.73H13.12C13.0909 16.9088 13.0909 17.0912 13.12 17.27C12.12 18.17 12.45 18.33 10.54 18.66C8.63 18.99 9.74 19.6 10.48 19.76C11.2508 19.9793 12.0671 19.9825 12.8396 19.769C13.6121 19.5556 14.3111 19.1339 14.86 18.55L14.8 18.74C15.18 19 15.15 20.57 15.2 21.74C15.1966 22.6827 15.3382 23.6203 15.62 24.52C15.89 25.14 16.2 26.73 18.71 26.28C20.81 25.9 22.41 25.35 22.55 20.28" stroke="#202020" stroke-width="2.44"/>
<path d="M28.15 17.03C24.62 17.65 24.38 16.64 24.38 16.64C28.11 11.94 29.67 5.98002 28.32 4.52002C24.65 0.520021 18.32 2.43002 18.18 2.52002C17.3996 2.39179 16.6108 2.3216 15.82 2.31002C14.5048 2.26463 13.2061 2.61283 12.09 3.31002C12.09 3.31002 0.710001 -0.739979 1.23 8.16002C1.35 10.07 4.45 22.56 8.16 18.79C9.51 17.41 10.82 16.24 10.82 16.24C11.5028 16.6185 12.2815 16.7888 13.06 16.73H13.12C13.0909 16.9088 13.0909 17.0912 13.12 17.27C12.12 18.17 12.44 18.33 10.54 18.66C8.64 18.99 9.74 19.6 10.48 19.76C11.2508 19.9794 12.0671 19.9825 12.8396 19.7691C13.6121 19.5557 14.3111 19.1339 14.86 18.55L14.8 18.74C15.18 19 15.44 20.39 15.4 21.66C15.2705 22.6016 15.3455 23.5601 15.62 24.47C15.91 25.15 16.21 26.68 18.71 26.23C20.81 25.85 21.89 24.86 22.04 23.23C22.15 22.07 22.39 22.23 22.41 21.23L22.6 20.74C22.83 19.15 22.6 18.64 23.93 18.88H24.24C25.2332 18.9167 26.225 18.7779 27.17 18.47C28.74 17.85 29.67 16.82 28.12 17.09L28.15 17.03Z" fill="#6E6E6E"/>
<path d="M15.05 17.94C14.95 20.94 15.05 23.86 15.41 24.59C15.77 25.32 16.48 26.71 18.99 26.26C21.08 25.88 21.84 25.14 22.18 23.51C22.41 22.32 22.89 18.99 22.95 18.31M12 3.16002C12 3.16002 0.679987 -0.779977 1.21999 8.16002C1.32999 10.06 4.42999 22.56 8.13999 18.78C9.48999 17.4 10.71 16.31 10.71 16.31M18.18 2.43002C17.78 2.53002 24.49 0.350019 28.3 4.43002C29.65 5.89002 28.09 11.85 24.36 16.54" stroke="white" stroke-width="0.81" stroke-linecap="round" stroke-linejoin="round"/>
<path d="M24.35 16.6C24.35 16.6 24.59 17.6 28.13 17C29.68 16.73 28.75 17.76 27.18 18.38C25.89 18.88 23 19.01 22.95 18.31C22.83 16.5 24.47 17.05 24.35 16.6C24.23 16.15 23.51 15.79 23.02 14.79C22.53 13.79 17.2 7.24003 24.52 8.23003C24.79 8.23003 22.61 2.33003 15.76 2.23003C8.90999 2.13003 9.14999 9.36003 9.14999 9.36003" stroke="white" stroke-width="0.81" stroke-linecap="round" stroke-linejoin="bevel"/>
<path d="M13.13 17.2201C12.13 18.1201 12.46 18.2801 10.55 18.6101C8.64001 18.9401 9.75001 19.5501 10.49 19.7101C11.2608 19.9294 12.0772 19.9326 12.8497 19.7192C13.6222 19.5058 14.3211 19.084 14.87 18.5001C15.3 18.0001 14.87 17.1901 14.28 16.9801C14.0875 16.8937 13.8726 16.8703 13.6661 16.9134C13.4595 16.9565 13.2719 17.0639 13.13 17.2201Z" stroke="white" stroke-width="0.81" stroke-linejoin="round"/>
<path d="M13.07 17.1601C13.0684 16.49 13.2518 15.8326 13.6 15.2601C14.1527 14.4227 14.5043 13.469 14.6274 12.4733C14.7506 11.4776 14.642 10.4669 14.31 9.52008C13.64 6.90008 9.15 8.98008 9.15 9.33008C9.25925 10.4926 9.2324 11.6638 9.07 12.8201C9.01312 13.3536 9.07863 13.8931 9.26154 14.3976C9.44446 14.902 9.73996 15.3581 10.1256 15.7312C10.5112 16.1043 10.9768 16.3846 11.487 16.5507C11.9972 16.7169 12.5386 16.7645 13.07 16.6901" stroke="white" stroke-width="0.81" stroke-linecap="round" stroke-linejoin="round"/>
<path d="M12 9.32009C12 9.44009 12.26 9.76009 12.63 9.81009C12.7673 9.83042 12.9076 9.80884 13.0325 9.74818C13.1574 9.68753 13.2611 9.5906 13.33 9.47009C13.33 9.35009 13.07 9.22008 12.7 9.18008C12.33 9.14008 12 9.16009 12 9.32009Z" fill="white" stroke="white" stroke-width="0.27"/>
<path d="M23.2 9.06999C23.2 9.18999 22.94 9.50999 22.57 9.55999C22.4338 9.5799 22.2947 9.55921 22.1702 9.50052C22.0457 9.44182 21.9413 9.34772 21.87 9.22999C21.87 9.09999 22.13 8.96998 22.5 8.92998C22.87 8.88998 23.18 8.92999 23.2 9.06999Z" fill="white" stroke="white" stroke-width="0.14"/>
<path d="M24.52 8.22998C24.4725 9.1076 24.379 9.98214 24.24 10.85C24.18 12.32 25.07 14.01 23.73 15.7" stroke="white" stroke-width="0.81" stroke-linecap="round" stroke-linejoin="round"/>
</g>
<defs>
<clipPath id="clip0_83_442">
<rect width="178" height="26.78" fill="white" transform="translate(0 0.77002)"/>
</clipPath>
</defs>
</svg>
